<svg width="61" height="27" viewBox="0 0 61 27" fill="none" xmlns="http://www.w3.org/2000/svg">
<path d="M14.3474 26.2856C11.8034 26.2856 9.51141 25.7336 7.47141 24.6296C5.43141 23.5016 3.82341 21.9536 2.64741 19.9856C1.49541 18.0176 0.919406 15.8216 0.919406 13.3976C0.919406 10.9736 1.49541 8.77756 2.64741 6.80956C3.82341 4.84156 5.43141 3.30556 7.47141 2.20156C9.51141 1.07356 11.8034 0.509558 14.3474 0.509558C16.8674 0.509558 19.1474 1.07356 21.1874 2.20156C23.2274 3.30556 24.8234 4.84156 25.9754 6.80956C27.1274 8.75356 27.7034 10.9496 27.7034 13.3976C27.7034 15.8456 27.1274 18.0536 25.9754 20.0216C24.8234 21.9656 23.2274 23.5016 21.1874 24.6296C19.1474 25.7336 16.8674 26.2856 14.3474 26.2856ZM14.3474 23.0816C16.1954 23.0816 17.8514 22.6616 19.3154 21.8216C20.8034 20.9816 21.9674 19.8296 22.8074 18.3656C23.6714 16.8776 24.1034 15.2216 24.1034 13.3976C24.1034 11.5736 23.6714 9.92956 22.8074 8.46556C21.9674 6.97756 20.8034 5.81356 19.3154 4.97356C17.8514 4.13356 16.1954 3.71356 14.3474 3.71356C12.4994 3.71356 10.8194 4.13356 9.30741 4.97356C7.81941 5.81356 6.64341 6.97756 5.77941 8.46556C4.93941 9.92956 4.51941 11.5736 4.51941 13.3976C4.51941 15.2216 4.93941 16.8776 5.77941 18.3656C6.64341 19.8296 7.81941 20.9816 9.30741 21.8216C10.8194 22.6616 12.4994 23.0816 14.3474 23.0816ZM56.5698 25.9976L56.5338 7.63756L47.4258 22.9376H45.7698L36.6618 7.74556V25.9976H33.2058V0.797557H36.1578L46.6698 18.5096L57.0378 0.797557H59.9898L60.0258 25.9976H56.5698Z" fill="white"/>
</svg>
